<?xml version="1.0" encoding="utf-8"?>
<svg id="logoIcon" class="logo-icon" width="132" height="112" viewBox="0 0 112 90" fill="none" xmlns="http://www.w3.org/2000/svg">
  <path d="M29.38 92.5002L116.59 68.3602L104.19 44.9102L14.88 68.3602L29.38 92.5002Z" fill="#327AB6"/>
  <path d="M104.19 44.9102V21.4502L14.88 44.9102V68.3602L104.19 44.9102Z" fill="#5A91C3"/>
  <path d="M104.19 21.45L84.79 -2L0 21.45L14.88 44.91L104.19 21.45Z" fill="#7AA5CD"/>
  <path d="M19.48 69.8602L90.94 50.9702L85.93 73.7602L30.95 88.9702L19.48 69.8602Z" fill="#D9D9D9"/>
  <path d="M55.76 67.6499L63.33 70.4599" stroke="#938E88" stroke-width="2" stroke-linecap="round" stroke-linejoin="round"/>
  <path d="M63.33 67.6499L55.76 70.4599" stroke="#938E88" stroke-width="2" stroke-linecap="round" stroke-linejoin="round"/>
  <path d="M90.42 48.52L52.09 26.27C52.09 26.27 49.51 29.86 50.57 32.84C51.63 35.82 53.72 43.47 65.74 38.54L72.17 53.41L90.42 48.52Z" fill="#D9D9D9"/>
  <path d="M42.6599 12.9102L55.2099 23.5502L94.7799 47.3802L90.4199 48.5202L59.5499 30.5002L52.0899 26.2702L37.9399 14.2602L42.6599 12.9102Z" fill="#6BBA20"/>
  <path d="M79.52 78.62L116.59 68.36L115.2 65.74L105.37 47.15L104.18 44.91V21.45L84.79 -2L0 21.45L1.94 24.51L14.88 44.91V68.36L27.79 89.85L29.38 92.5L32.54 91.62L79.52 78.62ZM83.66 1.24L98.35 20.41L16.54 41.69L4.87 23.69L83.66 1.24ZM18.08 44.07L100 22.55L101 45.74L18.08 67.52V44.07ZM19.48 69.86L102.26 48L112.62 66.47L31 89L19.48 69.86Z" fill="white"/>
  <path d="M35.82 62.86L50.82 58.92L44.65 50.24C44.65 50.24 40.19 42.57 39.08 38.54L18.08 44.07V67.52L35.82 62.86Z" fill="#D9D9D9"/>
  <path d="M80.61 31.36C80.61 25.7056 78.3637 20.2828 74.3655 16.2845C70.3672 12.2862 64.9444 10.04 59.29 10.04C53.6355 10.04 48.2127 12.2862 44.2144 16.2845C40.2162 20.2828 37.97 25.7056 37.97 31.36C37.97 31.36 36.15 44.6 59.27 68.45C59.27 68.45 81.83 47.23 80.61 31.36ZM59.3 40.24C57.5487 40.242 55.8363 39.7244 54.3794 38.7527C52.9225 37.781 51.7866 36.3989 51.1155 34.7814C50.4445 33.1639 50.2684 31.3836 50.6095 29.6659C50.9507 27.9483 51.7938 26.3704 53.0321 25.1321C54.2704 23.8939 55.8482 23.0508 57.5659 22.7096C59.2835 22.3684 61.0638 22.5446 62.6813 23.2156C64.2989 23.8867 65.6809 25.0226 66.6526 26.4795C67.6243 27.9364 68.1419 29.6488 68.14 31.4C68.14 33.7446 67.2086 35.993 65.5508 37.6509C63.893 39.3087 61.6445 40.24 59.3 40.24V40.24Z" fill="#0E1835"/>
  <path d="M90.9401 50.9699L94.9101 49.9199L90.8001 72.4899L85.9301 73.7599L90.9401 50.9699Z" fill="#6BBA20"/>
  <path d="M4.87 23.6798L37.94 14.2598L42.66 17.9998C42.66 17.9998 35.71 25.5698 38.42 35.9998L16.54 41.6898L4.87 23.6798Z" fill="#D9D9D9"/>
  <path d="M59.53 67.7801C66.9914 67.7801 73.04 65.9534 73.04 63.7001C73.04 61.4468 66.9914 59.6201 59.53 59.6201C52.0687 59.6201 46.02 61.4468 46.02 63.7001C46.02 65.9534 52.0687 67.7801 59.53 67.7801Z" stroke="#0E1835" stroke-width="2" stroke-miterlimit="10"/>
  <path d="M37.9399 14.2602L42.6599 12.9102L45.5399 15.0702L42.6599 18.0202L37.9399 14.2602Z" fill="#6BBA20"/>
</svg>